<?xml version="1.0" encoding="utf-8"?>
<!-- Generator: Adobe Illustrator 22.1.0, SVG Export Plug-In . SVG Version: 6.00 Build 0)  -->
<svg version="1.1" id="Layer_1" xmlns="http://www.w3.org/2000/svg" xmlns:xlink="http://www.w3.org/1999/xlink" x="0px" y="0px"
	 viewBox="0 0 128 128" style="enable-background:new 0 0 128 128;" xml:space="preserve">
<style type="text/css">
	.st0{fill:#DAECF2;stroke:#324249;stroke-width:2;stroke-linecap:round;stroke-linejoin:round;}
	.st1{fill:#F2F0DA;stroke:#324249;stroke-width:2;stroke-linecap:round;stroke-linejoin:round;}
	.st2{fill:#FF6673;stroke:#324249;stroke-width:2;stroke-linecap:round;stroke-linejoin:round;}
</style>
<g transform="translate(5 5)">
	<path class="st0" d="M35,32h48c1.7,0,3,1.3,3,3v26c0,1.7-1.3,3-3,3H64l-5,5l-5-5H35c-1.7,0-3-1.3-3-3V35C32,33.3,33.3,32,35,32z"/>
	<path class="st1" d="M42,54h28 M42,42h22 M56,48h20 M42,48h10"/>
	<polygon class="st2" points="86,74 32,74 32,78 86,78 	"/>
	<polygon class="st0" points="86,82 32,82 32,86 86,86 	"/>
</g>
</svg>
